<?xml version="1.0" encoding="iso-8859-1"?>
<!-- Generator: Adobe Illustrator 19.0.0, SVG Export Plug-In . SVG Version: 6.00 Build 0)  -->
<svg xmlns="http://www.w3.org/2000/svg" xmlns:xlink="http://www.w3.org/1999/xlink" version="1.1" id="Layer_1" x="0px" y="0px" viewBox="0 0 512.001 512.001" style="enable-background:new 0 0 512.001 512.001;" xml:space="preserve" width="512px" height="512px">
<g>
	<g>
		<path d="M410.324,175.053c-12.123-17.494-32.067-27.939-53.35-27.939h-71.508V68.182c0-2.631,1.078-5.062,3.035-6.844    c1.953-1.779,4.485-2.626,7.143-2.375c4.686,0.439,8.357,4.725,8.357,9.756v3.38c0,7.888,3.071,15.29,8.62,20.816    c5.552,5.576,12.953,8.646,20.842,8.646c16.245,0,29.461-13.216,29.461-29.461v-3.918c0-18.491-7.305-35.809-20.569-48.763    C329.093,6.47,311.61-0.407,293.094,0.019c-36.697,0.86-66.552,31.94-66.552,69.285v77.81h-71.514    c-21.284,0-41.228,10.445-53.35,27.939c-11.556,16.677-14.594,37.753-8.38,56.951c0,0,2.327,61.622,12.261,124.463    c13.975,88.398,35.085,136.324,64.539,146.52c8.15,2.819,16.477,4.228,24.933,4.228c7.819,0,15.747-1.209,23.737-3.619    c11.181,5.457,23.799,8.406,37.232,8.406c13.433,0,26.05-2.949,37.231-8.406c7.99,2.41,15.916,3.619,23.736,3.619    c8.455,0,16.787-1.409,24.935-4.228c29.452-10.196,50.563-58.122,64.538-146.519c9.934-62.841,12.261-124.463,12.261-124.463    C424.918,212.806,421.878,191.729,410.324,175.053z M244.406,69.303h0.001c0-27.722,22.029-50.791,49.108-51.426    c13.639-0.336,26.568,4.763,36.357,14.323c9.793,9.565,15.186,22.342,15.186,35.981v3.917c0,6.394-5.202,11.596-11.596,11.596    c-3.101,0-6.008-1.203-8.211-3.413c-2.184-2.176-3.387-5.082-3.387-8.183v-3.38c0-14.153-10.785-26.251-24.556-27.542    c-7.611-0.715-15.206,1.823-20.838,6.955c-5.637,5.134-8.869,12.443-8.869,20.051v78.932h-23.194V69.303z M175.941,486.103    c-12.555-4.346-36.099-27.311-52.713-132.281c-3.476-21.961-6.007-43.703-7.828-62.639l62.54,166.727    c4.613,12.295,11.593,22.868,20.346,31.325C190.658,489.652,183.187,488.61,175.941,486.103z M388.773,353.822    c-16.614,104.97-40.157,127.935-52.711,132.281c-7.247,2.507-14.718,3.549-22.347,3.132c8.752-8.458,15.734-19.029,20.346-31.325    l62.54-166.729C394.78,310.117,392.25,331.861,388.773,353.822z M401.018,228.541l-83.684,223.094    c-11.754,31.335-39.39,42.501-61.333,42.501c-21.942-0.001-49.578-11.165-61.333-42.501l-83.683-223.094    c-5.499-14.658-3.538-30.446,5.378-43.314s23.011-20.249,38.666-20.249h201.944c15.656,0,29.749,7.38,38.666,20.249    C404.555,198.096,406.515,213.883,401.018,228.541z" fill="#FFFFFF"/>
	</g>
</g>
<g>
	<g>
		<path d="M232,421.859l-39.37-216.777c-0.881-4.854-5.536-8.071-10.385-7.192c-4.853,0.881-8.074,5.531-7.192,10.385l39.37,216.777    c0.784,4.315,4.544,7.338,8.779,7.338c0.53,0,1.067-0.048,1.607-0.145C229.661,431.363,232.881,426.714,232,421.859z" fill="#FFFFFF"/>
	</g>
</g>
<g>
	<g>
		<path d="M329.755,197.89c-4.861-0.88-9.504,2.338-10.385,7.192L280,421.859c-0.881,4.854,2.339,9.503,7.192,10.385    c0.541,0.098,1.077,0.145,1.607,0.145c4.234,0,7.995-3.024,8.779-7.338l39.37-216.777    C337.829,203.42,334.608,198.771,329.755,197.89z" fill="#FFFFFF"/>
	</g>
</g>
<g>
</g>
<g>
</g>
<g>
</g>
<g>
</g>
<g>
</g>
<g>
</g>
<g>
</g>
<g>
</g>
<g>
</g>
<g>
</g>
<g>
</g>
<g>
</g>
<g>
</g>
<g>
</g>
<g>
</g>
</svg>
