<?xml version="1.0" encoding="iso-8859-1"?>
<!-- Generator: Adobe Illustrator 19.0.0, SVG Export Plug-In . SVG Version: 6.00 Build 0)  -->
<svg fill="#ffffff" version="1.1" id="Layer_1" xmlns="http://www.w3.org/2000/svg" xmlns:xlink="http://www.w3.org/1999/xlink" x="0px" y="0px"
	 viewBox="0 0 511.999 511.999" style="enable-background:new 0 0 511.999 511.999;" xml:space="preserve">
<g>
	<g>
		<path d="M502.639,238.262h-14.947c-3.572-25.585-21.553-46.601-45.459-54.577c-0.613-4.076-1.983-8.333-4.963-12.071
			c-6.332-7.931-16.67-9.601-25.792-11.074c-5.229-0.845-11.156-1.802-13.6-3.754c-2.41-1.925-4.646-7.464-6.617-12.352
			c-3.469-8.599-7.399-18.344-16.591-22.778c-9.05-4.361-19.033-1.408-27.839,1.198c-5.132,1.52-10.95,3.244-14.104,2.524
			c-2.878-0.654-7.227-4.608-11.064-8.098c-6.916-6.288-14.753-13.416-25.112-13.416c-10.356,0-18.189,7.126-25.102,13.411
			c-3.838,3.491-8.188,7.448-11.076,8.103c-3.15,0.72-8.971-1.005-14.103-2.524c-8.808-2.607-18.787-5.561-27.84-1.198
			c-9.191,4.433-13.122,14.179-16.591,22.779c-1.971,4.887-4.206,10.427-6.614,12.351c-2.445,1.952-8.373,2.911-13.602,3.756
			c-8.982,1.45-19.134,3.104-25.495,10.734l-32.214-32.214c9.843-14.782,8.253-34.981-4.775-48.009L67.625,39.539
			c-7.189-7.192-16.749-11.152-26.918-11.152s-19.728,3.96-26.919,11.151l-2.639,2.639C3.959,49.367,0,58.926,0,69.094
			c0,10.169,3.959,19.73,11.15,26.919l51.514,51.514c7.422,7.42,17.17,11.131,26.918,11.131c7.367,0,14.731-2.122,21.093-6.359
			l33.864,33.864c-20.707,9.339-35.876,28.829-39.125,52.098H90.467c-5.17,0-9.361,4.19-9.361,9.361
			c0,41.418,11.784,81.643,34.078,116.331c20.63,32.098,49.27,58.078,83.08,75.434v34.865c0,5.171,4.191,9.361,9.361,9.361h177.854
			c5.17,0,9.361-4.19,9.361-9.361v-34.865c33.81-17.354,62.45-43.336,83.08-75.434c22.295-34.688,34.078-74.914,34.078-116.331
			C512,242.453,507.809,238.262,502.639,238.262z M105.9,131.65l-2.637,2.637c-7.544,7.545-19.817,7.545-27.36,0.001L24.389,82.774
			c-3.655-3.653-5.667-8.511-5.667-13.68c0-5.167,2.012-10.025,5.667-13.679l2.637-2.637c3.655-3.655,8.512-5.668,13.68-5.668
			c5.167,0,10.025,2.013,13.68,5.668l51.514,51.513C113.443,111.833,113.443,124.108,105.9,131.65z M468.721,238.262h-95.525
			c4.377-22.376,24.124-39.315,47.762-39.315S464.344,215.887,468.721,238.262z M389.966,173.889
			c5.688,3.059,12.437,4.15,18.525,5.134c2.445,0.394,5.154,0.834,7.57,1.399c-20.955,1.513-39.282,12.638-50.579,28.989
			l-130.823-11.65L389.966,173.889z M231.797,216.303l124.86,11.12c-1.102,3.499-1.913,7.123-2.431,10.84H238.879v-0.001
			C237.786,230.433,235.345,223.034,231.797,216.303z M184.609,179.023c7.505-1.213,16.01-2.586,22.3-7.608
			c6.25-4.993,9.323-12.611,12.294-19.977c2.091-5.182,4.692-11.63,7.359-12.918c2.539-1.222,9.112,0.721,14.394,2.287
			c7.333,2.171,15.641,4.629,23.568,2.828c7.69-1.746,13.705-7.218,19.522-12.509c4.183-3.804,9.389-8.54,12.504-8.54
			c3.118,0,8.329,4.739,12.515,8.546c5.815,5.288,11.829,10.757,19.508,12.504c7.928,1.801,16.24-0.658,23.571-2.828
			c5.282-1.565,11.855-3.509,14.393-2.288c2.669,1.287,5.27,7.736,7.36,12.918c0.755,1.872,1.518,3.762,2.338,5.62l-179.942,27.657
			c-6.049-2.33-12.513-3.806-19.25-4.292C179.457,179.857,182.165,179.419,184.609,179.023z M172.146,198.947
			c23.638,0,43.385,16.939,47.762,39.315h-95.524C128.761,215.887,148.508,198.947,172.146,198.947z M376.118,464.891H216.986
			v-21.946h159.132V464.891z M462.171,353.831c-19.453,30.267-46.712,54.555-78.9,70.391H209.834
			c-32.188-15.835-59.447-40.123-78.9-70.391c-18.667-29.043-29.262-62.346-30.887-96.847h393.009
			C491.433,291.486,480.837,324.789,462.171,353.831z"/>
	</g>
</g>
<g>
</g>
<g>
</g>
<g>
</g>
<g>
</g>
<g>
</g>
<g>
</g>
<g>
</g>
<g>
</g>
<g>
</g>
<g>
</g>
<g>
</g>
<g>
</g>
<g>
</g>
<g>
</g>
<g>
</g>
</svg>
