<?xml version="1.0" encoding="iso-8859-1"?>
<!-- Generator: Adobe Illustrator 19.0.0, SVG Export Plug-In . SVG Version: 6.00 Build 0)  -->
<svg fill="#ffffff" version="1.1" id="Layer_1" xmlns="http://www.w3.org/2000/svg" xmlns:xlink="http://www.w3.org/1999/xlink" x="0px" y="0px"
	 viewBox="0 0 512.001 512.001" style="enable-background:new 0 0 512.001 512.001;" xml:space="preserve">
<g>
	<g>
		<path d="M379.319,29.193c-1.834-2.308-4.689-3.548-7.636-3.304l-21.305,1.775l-7.212-21.636c-0.906-2.719-3.078-4.827-5.823-5.654
			c-2.748-0.826-5.721-0.264-7.976,1.502l-15.212,11.916L303.213,3.554c-1.721-1.61-4.022-2.466-6.371-2.372
			c-2.355,0.093-4.577,1.126-6.165,2.867l-22.936,25.141c-3.852-0.588-7.772-0.896-11.741-0.896c-3.977,0-7.903,0.297-11.753,0.882
			L221.323,4.049c-1.589-1.742-3.809-2.774-6.165-2.867c-2.351-0.095-4.65,0.76-6.371,2.372l-10.942,10.238L182.635,1.876
			c-2.256-1.767-5.227-2.328-7.976-1.502c-2.745,0.826-4.917,2.935-5.823,5.654l-7.212,21.636l-21.305-1.775
			c-2.948-0.245-5.804,0.994-7.636,3.304c-1.832,2.31-2.39,5.381-1.487,8.186l11.943,37.048v428.758
			c0,4.868,3.946,8.815,8.815,8.815h208.092c4.87,0,8.815-3.947,8.815-8.815V74.426l11.944-37.048
			C381.71,34.573,381.151,31.501,379.319,29.193z M256.001,45.928c15.784-0.001,30.633,6.151,41.82,17.326
			c0.355,0.354,0.697,0.708,1.073,1.108c6.213,6.539,10.812,14.346,13.497,22.838c-1.65,1.059-3.291,2.131-4.914,3.231
			c-14.146-12.808-32.277-19.818-51.476-19.818c-19.284,0-37.327,7.006-51.457,19.831c-1.629-1.104-3.278-2.18-4.934-3.244
			c2.685-8.492,7.285-16.3,13.504-22.844C224.385,52.473,239.617,45.928,256.001,45.928z M292.877,101.163
			c-13.511,10.738-25.875,22.963-36.876,36.507c-11.003-13.545-23.368-25.771-36.881-36.511
			c10.42-8.369,23.247-12.915,36.881-12.915C269.562,88.244,282.427,92.796,292.877,101.163z M152.034,44.556l15.03,1.253
			c4.04,0.337,7.81-2.14,9.095-5.997l5.449-16.346l11.312,8.861c3.42,2.68,8.288,2.467,11.459-0.503l9.937-9.297l11.033,12.095
			c-9.302,4.049-17.792,9.972-25.021,17.594c-7.126,7.499-12.611,16.292-16.199,25.851c-8.095-4.372-16.46-8.293-25.071-11.726
			L152.034,44.556z M160.77,86.235c34.951,15.595,65.245,39.946,88.13,71.052c28.043,38.112,42.867,83.351,42.867,130.826
			s-14.823,92.713-42.867,130.826c-22.885,31.105-53.179,55.457-88.13,71.052V86.235z M190.882,494.369
			c24.804-14.457,46.842-33.315,65.118-55.814c18.276,22.499,40.313,41.357,65.117,55.814H190.882z M351.23,489.991
			c-33.034-14.74-61.89-37.315-84.278-66.009c27.786-40.004,42.445-86.832,42.445-135.869c0-49.038-14.661-95.865-42.445-135.869
			c22.387-28.695,51.244-51.269,84.278-66.008V489.991z M352.942,66.342c-8.61,3.431-16.975,7.353-25.07,11.724
			c-3.587-9.556-9.065-18.342-16.166-25.815c-0.474-0.504-0.947-0.993-1.432-1.476c-6.924-6.917-14.941-12.332-23.65-16.124
			l11.062-12.124l9.937,9.297c3.174,2.97,8.038,3.183,11.459,0.503l11.312-8.861l5.449,16.346c1.287,3.858,5.064,6.334,9.095,5.997
			l15.028-1.253L352.942,66.342z"/>
	</g>
</g>
<g>
	<g>
		<circle cx="321.761" cy="157.207" r="8.815"/>
	</g>
</g>
<g>
	<g>
		<circle cx="201.155" cy="177.964" r="8.815"/>
	</g>
</g>
<g>
	<g>
		<circle cx="237.11" cy="244.173" r="8.815"/>
	</g>
</g>
<g>
	<g>
		<circle cx="238.273" cy="332.409" r="8.815"/>
	</g>
</g>
<g>
	<g>
		<circle cx="200.92" cy="398.842" r="8.815"/>
	</g>
</g>
<g>
	<g>
		<circle cx="321.385" cy="418.788" r="8.815"/>
	</g>
</g>
<g>
</g>
<g>
</g>
<g>
</g>
<g>
</g>
<g>
</g>
<g>
</g>
<g>
</g>
<g>
</g>
<g>
</g>
<g>
</g>
<g>
</g>
<g>
</g>
<g>
</g>
<g>
</g>
<g>
</g>
</svg>
