<?xml version="1.0" encoding="iso-8859-1"?>
<!-- Generator: Adobe Illustrator 19.0.0, SVG Export Plug-In . SVG Version: 6.00 Build 0)  -->
<svg fill="#ffffff" version="1.1" id="Layer_1" xmlns="http://www.w3.org/2000/svg" xmlns:xlink="http://www.w3.org/1999/xlink" x="0px" y="0px"
	 viewBox="0 0 511.999 511.999" style="enable-background:new 0 0 511.999 511.999;" xml:space="preserve">
<g>
	<g>
		<path d="M318.485,351.539v-5.034c0-47.534,15.613-94.105,43.965-131.128c17.76-23.193,27.282-50.922,27.538-80.192
			c0.64-73.51-58.612-134.148-132.084-135.17C257.262,0.005,256.622,0,255.981,0c-35.45,0-68.788,13.659-94.065,38.585
			c-25.737,25.381-39.911,59.266-39.911,95.41c0,29.871,9.619,58.134,27.814,81.735c28.176,36.546,43.693,83.187,43.693,131.33
			v4.478c0,5.03,4.076,9.106,9.106,9.106h5.841v36.942c-28.186,3.652-50.025,27.804-50.025,56.961
			c0,31.68,25.773,57.452,57.452,57.452c15.155,0,29.484-5.949,40.104-16.317c10.629,10.369,24.958,16.317,40.11,16.317
			c31.679,0,57.451-25.773,57.451-57.452c0-29.157-21.839-53.309-50.023-56.961v-36.942h5.851v0.001
			C314.409,360.645,318.485,356.569,318.485,351.539z M335.34,454.548c0,21.636-17.602,39.239-39.238,39.239
			c-13.066,0-25.24-6.482-32.564-17.339c-1.694-2.51-4.523-4.014-7.55-4.014c-0.001,0-0.002,0-0.004,0
			c-3.027,0.001-5.857,1.507-7.55,4.019c-7.31,10.855-19.479,17.335-32.548,17.335c-21.636,0-39.239-17.603-39.239-39.239
			c0-21.629,17.603-39.227,39.239-39.227c0.458,0,0.915,0.012,1.463,0.026c2.49,0.024,4.825-0.877,6.578-2.59
			c1.754-1.713,2.744-4.063,2.744-6.514v-45.598h58.644v45.598c0.001,2.453,1.037,4.801,2.791,6.514
			c1.753,1.712,4.182,2.61,6.624,2.587c0.449-0.011,0.909-0.023,1.37-0.023C317.738,415.321,335.34,432.918,335.34,454.548z
			 M300.306,342.434h-88.625c-0.965-50.504-17.724-99.283-47.437-137.822c-15.716-20.387-24.025-44.805-24.025-70.616
			c0-31.232,12.248-60.51,34.487-82.442c21.84-21.54,50.646-33.342,81.282-33.342c0.552,0,1.11,0.005,1.662,0.012
			c63.482,0.885,114.679,53.282,114.124,116.802c-0.221,25.289-8.446,49.245-23.787,69.279
			C318.028,243.431,301.175,292.335,300.306,342.434z"/>
	</g>
</g>
<g>
</g>
<g>
</g>
<g>
</g>
<g>
</g>
<g>
</g>
<g>
</g>
<g>
</g>
<g>
</g>
<g>
</g>
<g>
</g>
<g>
</g>
<g>
</g>
<g>
</g>
<g>
</g>
<g>
</g>
</svg>
