<?xml version="1.0" encoding="iso-8859-1"?>
<!-- Generator: Adobe Illustrator 19.0.0, SVG Export Plug-In . SVG Version: 6.00 Build 0)  -->
<svg version="1.1" id="Layer_1" xmlns="http://www.w3.org/2000/svg" xmlns:xlink="http://www.w3.org/1999/xlink" x="0px" y="0px"
	 viewBox="0 0 512 512" style="enable-background:new 0 0 512 512;" xml:space="preserve">
<g>
	<g>
		<path d="M423.137,2.977C421.346,1.078,418.849,0,416.237,0H95.763c-2.612,0-5.109,1.078-6.9,2.977
			c-1.792,1.901-2.719,4.456-2.565,7.065l26.965,455.11c0.297,5.01,4.448,8.922,9.466,8.922h8.565l8.593,30.979
			c1.139,4.105,4.876,6.947,9.138,6.947h213.949c4.261,0,7.998-2.842,9.137-6.947l8.596-30.979h8.565
			c5.019,0,9.168-3.912,9.466-8.922l26.964-455.11C425.856,7.435,424.928,4.879,423.137,2.977z M131.666,455.111L109.363,78.709
			h28.613l15.502,376.402H131.666z M355.766,493.036H156.234l-5.259-18.963h210.052L355.766,493.036z M156.955,78.709H209.8
			l5.237,376.402h-42.578L156.955,78.709z M228.765,78.708h54.464l-5.235,376.402h-43.992L228.765,78.708z M296.96,455.11
			l5.235-376.402h52.845l-15.49,376.402H296.96z M380.334,455.11h-21.803l15.491-376.402h28.615L380.334,455.11z M403.76,59.745
			H108.239l-2.416-40.781h300.353L403.76,59.745z"/>
	</g>
</g>
<g>
</g>
<g>
</g>
<g>
</g>
<g>
</g>
<g>
</g>
<g>
</g>
<g>
</g>
<g>
</g>
<g>
</g>
<g>
</g>
<g>
</g>
<g>
</g>
<g>
</g>
<g>
</g>
<g>
</g>
</svg>
