<?xml version="1.0" encoding="iso-8859-1"?>
<!-- Generator: Adobe Illustrator 19.0.0, SVG Export Plug-In . SVG Version: 6.00 Build 0)  -->
<svg fill="#ffffff" version="1.1" id="Layer_1" xmlns="http://www.w3.org/2000/svg" xmlns:xlink="http://www.w3.org/1999/xlink" x="0px" y="0px"
	 viewBox="0 0 512.001 512.001" style="enable-background:new 0 0 512.001 512.001;" xml:space="preserve">
<g>
	<g>
		<path d="M365.72,153.111c-31.865-14.174-53.963-44.472-57.671-79.071l-7.036-65.651C300.502,3.618,296.476,0,291.677,0h-71.354
			c-4.799,0-8.825,3.618-9.335,8.389l-7.034,65.651c-3.709,34.6-25.808,64.898-57.672,79.072
			C76.708,184.057,33.488,242.298,33.488,305.107c0,47.105,23.459,91.236,66.059,124.264c36.962,28.657,84.569,45.946,135.786,49.62
			l-5.888,5.888c-3.667,3.667-3.667,9.612,0,13.278c3.668,3.667,9.612,3.667,13.279,0l3.887-3.888v8.344
			c0,5.185,4.203,9.389,9.389,9.389c5.187,0,9.389-4.204,9.389-9.389v-8.344l3.887,3.888c1.834,1.833,4.238,2.75,6.64,2.75
			s4.806-0.916,6.64-2.75c3.667-3.667,3.667-9.612,0-13.278l-5.886-5.889c51.218-3.674,98.825-20.963,135.786-49.62
			c42.598-33.029,66.059-77.159,66.059-124.264C478.514,242.298,435.294,184.056,365.72,153.111z M256.001,460.959
			c-112.339,0-203.735-69.916-203.735-155.853c0-55.284,38.948-106.951,101.645-134.838c37.964-16.886,64.292-52.991,68.713-94.228
			l6.136-57.262h54.481l6.137,57.262c4.418,41.236,30.748,77.342,68.711,94.228c62.697,27.887,101.646,79.554,101.646,134.838
			C459.735,391.043,368.341,460.959,256.001,460.959z"/>
	</g>
</g>
<g>
	<g>
		<path d="M162.692,181.262c-3.955-3.353-9.88-2.863-13.232,1.093c-27.866,32.881-43.213,76.472-43.213,122.747
			c0,36.761,9.663,71.91,27.942,101.65c1.773,2.884,4.854,4.474,8.007,4.474c1.677,0,3.375-0.449,4.909-1.391
			c4.417-2.715,5.797-8.498,3.082-12.916c-16.461-26.781-25.163-58.53-25.163-91.818c0-41.833,13.765-81.113,38.76-110.606
			C167.137,190.54,166.648,184.614,162.692,181.262z"/>
	</g>
</g>
<g>
	<g>
		<path d="M362.536,182.355c-3.351-3.956-9.275-4.445-13.231-1.093c-3.956,3.353-4.445,9.278-1.093,13.234
			c24.995,29.492,38.76,68.773,38.76,110.606c0,33.287-8.701,65.037-25.163,91.818c-2.715,4.418-1.335,10.199,3.082,12.916
			c1.535,0.943,3.231,1.391,4.909,1.391c3.155,0,6.234-1.59,8.007-4.474c18.28-29.74,27.942-64.889,27.942-101.65
			C405.749,258.828,390.402,215.236,362.536,182.355z"/>
	</g>
</g>
<g>
	<g>
		<path d="M293.736,165.131c-2.133-4.725-7.694-6.829-12.42-4.693c-4.726,2.133-6.828,7.694-4.695,12.421
			c13.432,29.751,21.452,79.187,21.452,132.241c0,43.493-5.262,84.184-14.816,114.575c-1.555,4.946,1.196,10.218,6.142,11.773
			c0.936,0.294,1.885,0.434,2.818,0.434c3.991,0,7.694-2.566,8.954-6.576c10.112-32.164,15.68-74.855,15.68-120.206
			C316.851,249.515,308.211,197.19,293.736,165.131z"/>
	</g>
</g>
<g>
	<g>
		<path d="M230.695,160.439c-4.73-2.138-10.288-0.035-12.424,4.69c-14.474,32.031-23.116,84.356-23.116,139.972
			c0,45.354,5.568,88.043,15.681,120.207c1.261,4.01,4.963,6.575,8.954,6.575c0.933,0,1.882-0.14,2.818-0.434
			c4.947-1.555,7.697-6.827,6.141-11.773c-9.554-30.39-14.816-71.08-14.816-114.575c0-53.082,8.018-102.516,21.451-132.239
			C237.52,168.137,235.421,162.575,230.695,160.439z"/>
	</g>
</g>
<g>
</g>
<g>
</g>
<g>
</g>
<g>
</g>
<g>
</g>
<g>
</g>
<g>
</g>
<g>
</g>
<g>
</g>
<g>
</g>
<g>
</g>
<g>
</g>
<g>
</g>
<g>
</g>
<g>
</g>
</svg>
