<?xml version="1.0" encoding="iso-8859-1"?>
<!-- Generator: Adobe Illustrator 19.0.0, SVG Export Plug-In . SVG Version: 6.00 Build 0)  -->
<svg fill="#ffffff" version="1.1" id="Layer_1" xmlns="http://www.w3.org/2000/svg" xmlns:xlink="http://www.w3.org/1999/xlink" x="0px" y="0px"
	 viewBox="0 0 512 512" style="enable-background:new 0 0 512 512;" xml:space="preserve">
<g>
	<g>
		<path d="M175.849,250.551c-17.751,0-32.192,14.441-32.192,32.192s14.441,32.191,32.192,32.191c4.59,0,8.31-3.721,8.31-8.31
			c0-4.589-3.719-8.31-8.31-8.31c-8.587,0-15.572-6.986-15.572-15.571c0-8.587,6.986-15.572,15.572-15.572
			s15.572,6.986,15.572,15.572c0,4.589,3.719,8.31,8.31,8.31c4.59,0,8.31-3.721,8.31-8.31
			C208.04,264.992,193.599,250.551,175.849,250.551z"/>
	</g>
</g>
<g>
	<g>
		<path d="M330.705,259.189c-14.789,0-26.819,12.03-26.819,26.818c0,4.589,3.719,8.31,8.31,8.31s8.31-3.721,8.31-8.31
			c0-5.624,4.576-10.199,10.2-10.199c5.624,0,10.199,4.575,10.199,10.199c0,5.624-4.575,10.2-10.199,10.2
			c-4.59,0-8.31,3.721-8.31,8.31s3.719,8.31,8.31,8.31c14.788,0,26.818-12.03,26.818-26.819
			C357.523,271.219,345.493,259.189,330.705,259.189z"/>
	</g>
</g>
<g>
	<g>
		<path d="M511.696,339.366c-1.443-9.24-7.808-16.406-13.425-22.728c-3.962-4.461-7.706-8.673-8.977-12.595
			c-1.282-3.97-0.72-9.603-0.126-15.566c0.839-8.399,1.787-17.919-2.446-26.209c-4.207-8.237-12.442-13.033-19.708-17.265
			c-5.206-3.032-10.125-5.897-12.611-9.306c-2.409-3.299-3.612-8.788-4.884-14.599c-1.812-8.268-3.865-17.638-10.499-24.28
			c-6.633-6.627-16.004-8.679-24.272-10.49c-5.81-1.273-11.299-2.475-14.602-4.887c-3.406-2.484-6.269-7.399-9.301-12.603
			c-4.235-7.268-9.034-15.507-17.277-19.714c-8.289-4.235-17.806-3.284-26.201-2.446c-5.963,0.594-11.595,1.155-15.557-0.124
			c-3.929-1.273-8.144-5.016-12.606-8.979c-6.324-5.616-13.493-11.982-22.726-13.423c-9.074-1.42-17.766,2.4-25.431,5.772
			c-5.544,2.439-10.779,4.743-15.041,4.743c-4.26,0-9.494-2.303-15.037-4.742c-7.667-3.374-16.361-7.201-25.438-5.774
			c-9.24,1.441-16.409,7.808-22.733,13.424c-4.462,3.963-8.676,7.706-12.601,8.978c-3.963,1.283-9.594,0.72-15.556,0.126
			c-8.397-0.835-17.919-1.787-26.207,2.446c-8.238,4.207-13.034,12.442-17.265,19.708c-3.032,5.206-5.897,10.125-9.302,12.609
			c-3.305,2.41-8.795,3.613-14.606,4.886c-8.27,1.812-17.642,3.865-24.272,10.496c-6.633,6.634-8.688,16.006-10.499,24.273
			c-1.272,5.81-2.474,11.298-4.892,14.605c-2.485,3.407-7.401,6.271-12.605,9.302c-7.264,4.232-15.496,9.029-19.7,17.261
			c-4.241,8.29-3.292,17.809-2.454,26.209c0.594,5.963,1.156,11.596-0.132,15.57c-1.27,3.928-5.013,8.142-8.978,12.604
			c-5.613,6.319-11.975,13.479-13.424,22.72c-0.292,1.879-0.375,3.852-0.244,5.864c1.056,16.113,14.766,28.736,31.213,28.736h13.752
			c-0.053,1.952-0.085,3.909-0.085,5.873c0,4.589,3.719,8.31,8.31,8.31h405.503c4.59,0,8.31-3.721,8.31-8.31
			c0-1.964-0.032-3.921-0.085-5.873h13.749c16.448,0,30.158-12.623,31.211-28.732C512.071,343.226,511.989,341.252,511.696,339.366z
			 M61.736,371.532C66.099,268.152,151.568,185.4,256.002,185.4c104.435,0,189.903,82.751,194.267,186.133H61.736z M495.354,344.147
			c-0.484,7.403-6.909,13.202-14.627,13.202h-14.863C454.599,251.506,364.785,168.78,256.002,168.78
			c-108.782,0-198.596,82.726-209.861,188.569H31.274c-7.718,0-14.144-5.799-14.628-13.201c-0.053-0.808-0.027-1.535,0.079-2.214
			c0.693-4.415,4.936-9.192,9.429-14.248c4.928-5.548,10.025-11.285,12.365-18.526c2.358-7.277,1.594-14.933,0.856-22.335
			c-0.669-6.713-1.302-13.054,0.716-16.996c1.988-3.891,7.466-7.084,13.269-10.464c6.454-3.76,13.129-7.649,17.66-13.863
			c4.479-6.127,6.118-13.611,7.704-20.848c1.453-6.626,2.823-12.884,6.017-16.078c3.189-3.189,9.449-4.56,16.077-6.013
			c7.234-1.584,14.714-3.223,20.842-7.693c6.222-4.537,10.111-11.215,13.873-17.672c3.379-5.803,6.572-11.285,10.462-13.272
			c3.939-2.012,10.281-1.38,16.999-0.71c7.397,0.739,15.047,1.502,22.322-0.852c7.239-2.346,12.973-7.438,18.52-12.363
			c5.061-4.495,9.842-8.742,14.264-9.431c4.263-0.669,10.055,1.872,16.177,4.567c6.872,3.024,13.977,6.149,21.73,6.149
			c7.756,0,14.862-3.127,21.734-6.15c6.117-2.692,11.895-5.236,16.171-4.565c4.415,0.689,9.197,4.935,14.258,9.43
			c5.545,4.925,11.28,10.018,18.525,12.365c7.274,2.35,14.925,1.589,22.322,0.85c6.714-0.669,13.055-1.302,16.996,0.711
			c3.897,1.989,7.091,7.473,10.474,13.278c3.76,6.455,7.648,13.129,13.865,17.663c6.125,4.472,13.606,6.11,20.842,7.696
			c6.628,1.453,12.89,2.824,16.078,6.008c3.192,3.194,4.563,9.455,6.016,16.084c1.584,7.235,3.223,14.716,7.693,20.839
			c4.538,6.221,11.215,10.11,17.672,13.872c5.804,3.379,11.285,6.572,13.272,10.462c2.012,3.94,1.379,10.284,0.71,17
			c-0.738,7.4-1.5,15.052,0.852,22.331c2.346,7.241,7.439,12.973,12.365,18.517c4.495,5.058,8.74,9.836,9.428,14.248
			C495.382,342.614,495.409,343.338,495.354,344.147z"/>
	</g>
</g>
<g>
	<g>
		<circle cx="376.873" cy="331.533" r="8.31"/>
	</g>
</g>
<g>
	<g>
		<circle cx="278.431" cy="332.508" r="8.31"/>
	</g>
</g>
<g>
	<g>
		<circle cx="131.238" cy="342.258" r="8.31"/>
	</g>
</g>
<g>
	<g>
		<circle cx="255.241" cy="257.632" r="8.31"/>
	</g>
</g>
<g>
</g>
<g>
</g>
<g>
</g>
<g>
</g>
<g>
</g>
<g>
</g>
<g>
</g>
<g>
</g>
<g>
</g>
<g>
</g>
<g>
</g>
<g>
</g>
<g>
</g>
<g>
</g>
<g>
</g>
</svg>
